#!OML:ASF H:\Terrain\Patient Classification 1\Animal1\Tuesday\Animal1.ASF
:FULLY-SPECIFIED
:DEGREES
3444
root 2.68198 17.4414 5.47052 -1251.65 -242.878 -551.454
lowerback 8.20261 -3.53649 2.46636
upperback 0.91212 -4.30033 3.36046
thorax -3.5675 -2.12856 2.57904
lowerneck -7.7464 -1.4591 -3.36558
upperneck 0.661495 -1.81766 6.76162
head 1.67216 -0.755578 2.70494
rclavicle -1.15991e-013 3.27995e-014
rhumerus -74.8997 10.8872 -91.0992
rradius 62.895
rwrist -79.3955
rhand 37.6511 -357.07
rfingers 7.12502
rthumb 60.4211 -10.401
lclavicle -1.15991e-013 3.27995e-014
lhumerus -65.7574 -16.5227 115.208
lradius 47.2857
lwrist 49.3423
lhand 19.2671 56.9549
lfingers 7.12502
lthumb 43.8518 -279.107
rfemur -67.4554 17.7255 -8.57544
rtibia 32.7315
rfoot -12.4617 -39.8195
rtoes 65.4042
lfemur -12.3022 -13.6739 -26.0746
ltibia 28.8932
lfoot 41.1029 0.625261
ltoes 38.7535
3445
root 2.87451 17.4923 5.6179 -1251.48 -244.122 -551.577
lowerback 7.52969 -3.65683 2.74921
upperback 0.785452 -4.45939 3.51788
thorax -3.32942 -2.21162 2.55959
lowerneck -7.66006 -1.49271 -3.56765
upperneck 0.85751 -1.85216 6.57675
head 1.72238 -0.778721 2.67997
rclavicle -3.88624e-014 -1.41137e-014
rhumerus -74.7191 10.4442 -90.2324
rradius 63.4746
rwrist -78.5042
rhand 37.3061 -359.734
rfingers 7.12502
rthumb 60.127 -13.3799
lclavicle -3.88624e-014 -1.41137e-014
lhumerus -65.9207 -16.5649 115.347
lradius 47.0343
lwrist 49.0235
lhand 20.8325 56.0913
lfingers 7.12502
lthumb 45.3098 -280.532
rfemur -67.0604 19.0099 -10.5129
rtibia 32.1668
rfoot 21.817 -35.9327
rtoes 48.0646
lfemur -12.4575 -14.088 -25.6389
ltibia 29.1566
lfoot 43.1741 2.90946
ltoes 40.1651
3446
root 3.05582 17.5217 5.76451 -1250.52 -245.191 -550.81
lowerback 7.03066 -3.75301 2.54827
upperback 0.640771 -4.62348 3.60867
thorax -3.17406 -2.29235 2.75072
lowerneck -7.78566 -1.46486 -3.84955
upperneck 1.1532 -1.79342 6.3213
head 1.8385 -0.753854 2.65129
rclavicle 1.51076e-014 -9.93923e-016
rhumerus -74.9008 10.5826 -90.2844
rradius 63.3296
rwrist -79.038
rhand 39.2568 -356.278
rfingers 7.12502
rthumb 61.7763 -8.04733
lclavicle 1.51076e-014 -9.93923e-016
lhumerus -65.8273 -16.0563 114.993
lradius 47.2469
lwrist 48.0631
lhand 22.755 55.809
lfingers 7.12502
lthumb 47.0924 -281.566
rfemur -66.5921 19.4112 -11.4892
rtibia 32.058
rfoot 39.7432 -2.3571
rtoes -18.3187
lfemur -13.0057 -14.1529 -25.6316
ltibia 30.1636
lfoot 44.6183 5.65744
ltoes 41.9722
3447
root 3.235 17.5314 5.91064 -1249.01 -246.24 -549.351
lowerback 6.69343 -3.73825 2.22553
upperback 0.48784 -4.64888 3.48924
thorax -3.12757 -2.30433 2.79004
lowerneck -7.81086 -1.60581 -4.01411
upperneck 1.38421 -1.96965 6.08667
head 1.927 -0.847832 2.59703
rclavicle -6.70898e-016 7.7526e-015
rhumerus -75.2093 10.3976 -90.4261
rradius 63.1958
rwrist -79.7396
rhand 38.6643 -355.349
rfingers 7.12502
rthumb 61.279 -7.71265
lclavicle -6.70898e-016 7.7526e-015
lhumerus -66.1783 -16.0326 115.01
lradius 47.5224
lwrist 47.6847
lhand 24.4449 54.3202
lfingers 7.12502
lthumb 48.651 -283.777
rfemur -65.8496 19.1937 -11.8054
rtibia 32.3572
rfoot 38.1464 8.01381
rtoes -27.947
lfemur -13.8356 -13.6771 -26.0907
ltibia 31.9336
lfoot 45.6777 5.06938
ltoes 39.273
3448
root 3.42025 17.5302 6.05301 -1247.38 -247.437 -547.694
lowerback 6.41846 -3.76565 2.17575
upperback 0.338914 -4.71044 3.22721
thorax -3.1443 -2.33812 2.5391
lowerneck -7.62805 -1.75105 -4.15083
upperneck 1.48386 -2.15834 5.98158
head 1.93738 -0.948591 2.57931
rclavicle -1.30192e-013 8.51047e-015
rhumerus -75.4741 10.0457 -90.5743
rradius 63.1643
rwrist -80.0533
rhand 37.9483 -354.944
rfingers 7.12502
rthumb 60.6737 -7.99672
lclavicle -1.30192e-013 8.51047e-015
lhumerus -67.0154 -16.5226 115.602
lradius 48.1975
lwrist 48.742
lhand 23.4545 53.3298
lfingers 7.12502
lthumb 47.7386 -284.336
rfemur -64.7765 18.122 -11.0117
rtibia 33.1045
rfoot 37.0998 13.7863
rtoes -31.8102
lfemur -14.8006 -13.229 -26.5906
ltibia 34.3603
lfoot 46.08 5.3066
ltoes 38.8631
3449
root 3.60204 17.5162 6.19343 -1246.29 -248.7 -546.536
lowerback 6.26797 -3.89255 2.39787
upperback 0.261737 -4.87729 3.00231
thorax -3.1741 -2.42649 2.19207
lowerneck -7.75294 -1.7971 -4.48061
upperneck 1.80297 -2.20635 6.1709
head 2.07945 -0.967064 2.70601
rclavicle -2.79324e-014 -4.87395e-014
rhumerus -75.6799 9.91346 -90.8071
rradius 63.3655
rwrist -80.0379
rhand 38.453 -353.592
rfingers 7.12502
rthumb 61.1008 -6.1618
lclavicle -2.79324e-014 -4.87395e-014
lhumerus -67.5858 -16.6571 115.599
lradius 48.8649
lwrist 49.0059
lhand 22.8544 53.201
lfingers 7.12502
lthumb 47.1843 -284.214
rfemur -63.5451 16.6848 -9.37784
rtibia 33.9053
rfoot 40.2837 8.98333
rtoes -25.9662
lfemur -15.8956 -12.8609 -26.7193
ltibia 37.5235
lfoot 45.7632 8.82681
ltoes 43.2799
